<svg width="100" height="25" viewBox="0 0 100 25" xmlns="http://www.w3.org/2000/svg" xmlns:xlink="http://www.w3.org/1999/xlink" fill="none" overflow="hidden"><path d="M0 0.383301 19.084 0.383301 14.5038 23.2841 9.54198 23.2841 4.58015 23.2841 0 0.383301Z" fill="#0078D7"/><path d="M20.2291 2.67334 26.7176 2.67334 22.1375 23.284 15.6489 23.284 20.2291 2.67334Z" fill="#99C9EF"/><path d="M51.4964 12.5967 54.8879 12.5967C56.5402 12.5967 57.8338 12.1712 58.7686 11.3202 59.7034 10.4474 60.1709 9.34549 60.1709 8.01445 60.1709 6.53067 59.6926 5.35238 58.736 4.47957 57.7794 3.60675 56.4206 3.17035 54.6597 3.17035L51.4964 3.17035 51.4964 12.5967ZM48.855 0.911945 54.6271 0.911945C57.1707 0.911945 59.1708 1.57746 60.6274 2.9085 62.1058 4.21772 62.8449 5.9197 62.8449 8.01445 62.8449 9.97828 62.1166 11.6148 60.66 12.924 59.2034 14.2114 57.2794 14.8551 54.8879 14.8551L51.4964 14.8551 51.4964 23.4596 48.855 23.4596 48.855 0.911945Z" fill="#0078D7"/><path d="M66.6251 23.8838 66.6251 7.28943 69.2014 7.28943 69.2014 23.8838 66.6251 23.8838ZM66.6903 3.29631C66.386 2.96901 66.2338 2.56533 66.2338 2.08529 66.2338 1.60524 66.386 1.20156 66.6903 0.874259 67.0164 0.546954 67.4186 0.383301 67.8969 0.383301 68.3752 0.383301 68.7774 0.546954 69.1035 0.874259 69.4296 1.20156 69.5927 1.60524 69.5927 2.08529 69.5927 2.56533 69.4296 2.96901 69.1035 3.29631 68.7774 3.6018 68.3752 3.75454 67.8969 3.75454 67.4186 3.75454 67.0164 3.6018 66.6903 3.29631Z" fill="#0078D7"/><path d="M76.6496 7.28943 76.6496 10.1697C77.6279 8.09678 79.3671 7.06032 81.8673 7.06032 83.476 7.06032 84.7587 7.55127 85.7153 8.53319 86.6719 9.5151 87.1502 10.8243 87.1502 12.4608L87.1502 23.8838 84.5739 23.8838 84.5739 13.1482C84.5739 11.9262 84.2587 10.9989 83.6282 10.3661 83.0195 9.71148 82.2151 9.38418 81.215 9.38418 79.9758 9.38418 78.8997 9.86422 77.9866 10.8243 77.0952 11.7844 76.6496 13.1154 76.6496 14.8174L76.6496 23.8838 74.1059 23.8838 74.1059 7.28943 76.6496 7.28943Z" fill="#0078D7"/><path d="M95.2715 9.38418 95.2715 19.1051C95.2715 20.8726 96.0976 21.7563 97.7499 21.7563 98.5978 21.7563 99.3478 21.5054 100 21.0035L100 23.4583C99.2826 23.851 98.4782 24.0474 97.5868 24.0474 94.3258 24.0474 92.6952 22.3782 92.6952 19.0397L92.6952 9.38418 90.0538 9.38418 90.0538 7.28943 92.6952 7.28943 92.6952 3.75454 95.2715 3.16539 95.2715 7.28943 99.837 7.28943 99.837 9.38418 95.2715 9.38418Z" fill="#0078D7"/><path d="M29.771 23.4909C29.771 21.9739 29.9456 20.697 30.2948 19.6603 30.6441 18.6235 31.2552 17.6304 32.1283 16.6809 33.0013 15.7206 34.2946 14.6129 36.008 13.3578 37.5795 12.1901 39.6029 10.5082 39.6029 10.5082L42.0999 11.6006C42.0999 11.6006 39.9913 13.527 38.267 14.782 36.9793 15.6987 35.9479 16.5282 35.1731 17.2703 34.3982 18.0124 33.8308 18.7217 33.4706 19.3984 33.1214 20.0641 32.9468 20.7516 32.9468 21.461L44.2748 21.461 44.2748 24.0474 29.771 24.0474 29.771 23.4909Z" fill="#0078D7"/><path d="M37.4157 12.346C40.1849 10.0383 41.0594 9.40613 41.0594 7.40909 41.0594 5.9079 40.6236 4.7578 39.7519 3.95878 38.8803 3.13555 37.7059 2.72393 36.229 2.72393 34.3162 2.72393 32.4276 3.43821 30.5632 4.86676L30.5632 1.99755C32.2823 0.66585 34.2556 0 36.4832 0 38.6139 0 40.4057 0.617424 41.8584 1.85227 43.3112 3.08712 44.0376 4.84254 44.0376 7.11854 44.0376 9.7467 42.9541 11.3075 39.0311 14.1921 39.0311 14.1921 34.6466 14.6536 37.4157 12.346Z" fill="#0078D7"/></svg>