<svg width="50" height="50" viewBox="0 0 50 50" xmlns="http://www.w3.org/2000/svg" xmlns:xlink="http://www.w3.org/1999/xlink" fill="#FFFFFF" overflow="hidden"><path d="M41 4 9 4C6.24 4 4 6.24 4 9L4 41C4 43.76 6.24 46 9 46L41 46C43.76 46 46 43.76 46 41L46 9C46 6.24 43.76 4 41 4ZM17 20 17 39 11 39 11 20 17 20ZM11 14.47C11 13.07 12.2 12 14 12 15.8 12 16.93 13.07 17 14.47 17 15.87 15.88 17 14 17 12.2 17 11 15.87 11 14.47ZM39 39 33 39C33 39 33 29.74 33 29 33 27 32 25 29.5 24.96L29.42 24.96C27 24.96 26 27.02 26 29 26 29.91 26 39 26 39L20 39 20 20 26 20 26 22.56C26 22.56 27.93 20 31.81 20 35.78 20 39 22.73 39 28.26L39 39Z"/></svg>