<svg viewBox="0 0 3046 463" xmlns="http://www.w3.org/2000/svg" xmlns:xlink="http://www.w3.org/1999/xlink" stroke-linejoin="round" stroke-miterlimit="2" fill-rule="evenodd" clip-rule="evenodd" xml:space="preserve" overflow="hidden"><g transform="translate(-425.217 -0.0958334)"><g transform="scale(4.16667 4.16667)"><path d="M102.227 108.537 102.227 35.198C102.227 32.503 102.167 29.689 102.052 26.756L117.177 26.756 117.704 39.068C118.759 37.66 120.048 36.108 121.573 34.407 123.096 32.709 124.973 31.153 127.201 29.746 129.427 28.339 132.038 27.169 135.028 26.229 138.017 25.292 141.387 24.822 145.14 24.822 155.808 24.822 163.723 27.93 168.883 34.143 174.042 40.359 176.622 48.801 176.622 59.469L176.622 108.537 160.793 108.537 160.793 60.7C160.793 53.08 159.15 47.482 155.869 43.904 152.585 40.329 147.954 38.54 141.975 38.54 137.402 38.54 133.591 39.48 130.543 41.354 127.493 43.231 125.061 45.663 123.244 48.653 121.425 51.643 120.106 55.045 119.287 58.853 118.465 62.665 118.056 66.564 118.056 70.549L118.056 108.537 102.227 108.537Z" fill="#FFFFFF" fill-rule="nonzero"/></g><g transform="scale(4.16667 4.16667)"><path d="M188.394 26.756 204.222 26.756 204.222 74.77C204.222 82.509 205.805 88.109 208.971 91.566 212.137 95.026 216.709 96.755 222.689 96.755 227.262 96.755 231.043 95.817 234.033 93.94 237.023 92.066 239.455 89.632 241.332 86.642 243.206 83.651 244.525 80.252 245.289 76.441 246.05 72.632 246.432 68.732 246.432 64.745L246.432 26.756 262.261 26.756 262.261 100.272C262.261 102.852 262.319 105.608 262.437 108.537L247.311 108.537 246.784 96.403C245.728 97.809 244.437 99.335 242.914 100.975 241.389 102.618 239.513 104.113 237.287 105.46 235.058 106.808 232.478 107.952 229.548 108.889 226.616 109.826 223.274 110.297 219.523 110.297 208.853 110.297 200.996 107.218 195.956 101.063 190.914 94.908 188.394 86.496 188.394 75.825L188.394 26.756Z" fill="#FFFFFF" fill-rule="nonzero"/></g><g transform="scale(4.16667 4.16667)"><path d="M275.616 108.537 275.616 35.198C275.616 32.503 275.555 29.689 275.44 26.756L290.565 26.756 291.093 39.068C292.03 37.66 293.261 36.108 294.786 34.407 296.309 32.709 298.128 31.153 300.238 29.746 302.349 28.339 304.838 27.169 307.713 26.229 310.585 25.292 313.896 24.822 317.65 24.822 323.981 24.822 329.227 26.083 333.39 28.603 337.551 31.126 340.805 34.789 343.152 39.595 346.433 35.726 350.45 32.297 355.199 29.306 359.947 26.317 365.839 24.822 372.874 24.822 383.426 24.822 391.223 27.96 396.266 34.231 401.306 40.505 403.828 48.917 403.828 59.469L403.828 108.537 387.999 108.537 387.999 60.7C387.999 53.08 386.504 47.482 383.515 43.904 380.525 40.329 376.155 38.54 370.412 38.54 367.128 38.54 364.108 39.216 361.355 40.563 358.598 41.912 356.194 43.701 354.143 45.927 352.091 48.155 350.508 50.763 349.395 53.753 348.279 56.743 347.724 59.881 347.724 63.162L347.724 108.537 331.895 108.537 331.895 60.7C331.895 53.08 330.401 47.482 327.411 43.904 324.421 40.329 320.112 38.54 314.484 38.54 310.145 38.54 306.509 39.48 303.58 41.354 300.648 43.231 298.273 45.663 296.457 48.653 294.638 51.643 293.349 55.072 292.588 58.941 291.824 62.811 291.444 66.68 291.444 70.549L291.444 108.537 275.616 108.537Z" fill="#FFFFFF" fill-rule="nonzero"/></g><g transform="scale(4.16667 4.16667)"><path d="M478.321 60.524C477.852 54.193 475.623 48.801 471.638 44.344 467.651 39.89 462.023 37.66 454.755 37.66 451 37.66 447.632 38.307 444.641 39.595 441.652 40.887 439.101 42.585 436.991 44.695 434.881 46.806 433.238 49.241 432.066 51.995 430.893 54.751 430.247 57.595 430.132 60.524L478.321 60.524ZM492.567 96.578C491.628 97.634 490.22 98.983 488.347 100.623 486.469 102.266 484.038 103.849 481.048 105.371 478.058 106.897 474.54 108.216 470.495 109.329 466.45 110.442 461.847 111 456.689 111 450.358 111 444.554 109.944 439.278 107.834 434.001 105.724 429.486 102.733 425.735 98.865 421.981 94.996 419.08 90.365 417.03 84.971 414.977 79.579 413.952 73.599 413.952 67.032 413.952 61.052 414.946 55.454 416.941 50.236 418.934 45.02 421.748 40.505 425.384 36.693 429.016 32.884 433.325 29.864 438.31 27.636 443.292 25.41 448.775 24.294 454.755 24.294 461.79 24.294 467.827 25.644 472.87 28.339 477.909 31.038 482.043 34.613 485.269 39.068 488.492 43.525 490.866 48.625 492.392 54.369 493.914 60.115 494.678 66.095 494.678 72.308L430.132 72.308C430.247 75.944 431.039 79.285 432.506 82.333 433.971 85.383 435.936 88.021 438.398 90.247 440.86 92.476 443.674 94.235 446.84 95.523 450.006 96.815 453.347 97.458 456.865 97.458 463.782 97.458 469.467 96.287 473.925 93.94 478.379 91.596 481.603 89.31 483.598 87.081L492.567 96.578Z" fill="#FFFFFF" fill-rule="nonzero"/></g><g transform="scale(4.16667 4.16667)"><path d="M578.557 97.282C574.921 101.387 570.436 104.699 565.102 107.218 559.766 109.739 553.583 111 546.547 111 539.98 111 534.03 109.914 528.696 107.746 523.36 105.578 518.847 102.588 515.154 98.777 511.461 94.968 508.616 90.395 506.624 85.059 504.629 79.725 503.634 73.891 503.634 67.559 503.634 61.58 504.69 55.952 506.8 50.675 508.91 45.399 511.87 40.799 515.682 36.869 519.49 32.942 524.005 29.834 529.224 27.548 534.44 25.261 540.216 24.118 546.547 24.118 553.464 24.118 559.562 25.349 564.838 27.812 570.115 30.274 574.627 33.615 578.381 37.837L568.004 47.861C565.542 44.814 562.552 42.409 559.035 40.65 555.517 38.891 551.354 38.012 546.547 38.012 542.327 38.012 538.545 38.804 535.204 40.387 531.862 41.969 529.048 44.141 526.762 46.894 524.476 49.65 522.716 52.816 521.486 56.391 520.254 59.969 519.638 63.69 519.638 67.559 519.638 71.313 520.254 74.976 521.486 78.552 522.716 82.13 524.476 85.295 526.762 88.049 529.048 90.805 531.862 93.003 535.204 94.644 538.545 96.287 542.327 97.106 546.547 97.106 551.354 97.106 555.663 96.199 559.474 94.38 563.283 92.563 566.421 90.132 568.884 87.081L578.557 97.282Z" fill="#FFFFFF" fill-rule="nonzero"/></g><g transform="scale(4.16667 4.16667)"><path d="M648.327 60.524C647.858 54.193 645.628 48.801 641.644 44.344 637.657 39.89 632.029 37.66 624.76 37.66 621.006 37.66 617.637 38.307 614.647 39.595 611.657 40.887 609.108 42.585 606.997 44.695 604.886 46.806 603.243 49.241 602.073 51.995 600.899 54.751 600.253 57.595 600.137 60.524L648.327 60.524ZM662.573 96.578C661.634 97.634 660.227 98.983 658.352 100.623 656.476 102.266 654.043 103.849 651.053 105.371 648.063 106.897 644.546 108.216 640.501 109.329 636.456 110.442 631.853 111 626.695 111 620.363 111 614.56 109.944 609.283 107.834 604.007 105.724 599.492 102.733 595.741 98.865 591.988 94.996 589.085 90.365 587.035 84.971 584.982 79.579 583.957 73.599 583.957 67.032 583.957 61.052 584.952 55.454 586.948 50.236 588.94 45.02 591.754 40.505 595.389 36.693 599.023 32.884 603.331 29.864 608.316 27.636 613.298 25.41 618.781 24.294 624.76 24.294 631.795 24.294 637.832 25.644 642.875 28.339 647.915 31.038 652.048 34.613 655.274 39.068 658.498 43.525 660.872 48.625 662.397 54.369 663.919 60.115 664.684 66.095 664.684 72.308L600.137 72.308C600.253 75.944 601.045 79.285 602.512 82.333 603.977 85.383 605.942 88.021 608.404 90.247 610.866 92.476 613.68 94.235 616.845 95.523 620.011 96.815 623.354 97.458 626.871 97.458 633.787 97.458 639.474 96.287 643.931 93.94 648.386 91.596 651.609 89.31 653.604 87.081L662.573 96.578Z" fill="#FFFFFF" fill-rule="nonzero"/></g><g transform="scale(4.16667 4.16667)"><path d="M676.791 108.537 676.791 35.198C676.791 32.503 676.731 29.689 676.615 26.756L691.74 26.756 692.268 39.068C693.323 37.66 694.612 36.108 696.137 34.407 697.659 32.709 699.537 31.153 701.765 29.746 703.991 28.339 706.602 27.169 709.591 26.229 712.581 25.292 715.951 24.822 719.705 24.822 730.372 24.822 738.287 27.93 743.448 34.143 748.605 40.359 751.185 48.801 751.185 59.469L751.185 108.537 735.357 108.537 735.357 60.7C735.357 53.08 733.714 47.482 730.432 43.904 727.148 40.329 722.518 38.54 716.539 38.54 711.966 38.54 708.154 39.48 705.106 41.354 702.056 43.231 699.624 45.663 697.808 48.653 695.989 51.643 694.67 55.045 693.851 58.853 693.029 62.665 692.62 66.564 692.62 70.549L692.62 108.537 676.791 108.537Z" fill="#FFFFFF" fill-rule="nonzero"/></g><g transform="scale(4.16667 4.16667)"><path d="M771.385 39.947 756.611 39.947 756.611 26.756 771.385 26.756 771.385 0.023 787.213 0.023 787.213 26.756 811.132 26.756 811.132 39.947 787.213 39.947 787.213 80.222C787.213 86.79 788.238 91.302 790.291 93.764 792.341 96.227 795.242 97.458 798.997 97.458 802.044 97.458 804.564 96.991 806.559 96.051 808.552 95.114 810.544 93.707 812.539 91.83L819.75 101.503C816.348 104.786 812.86 107.161 809.285 108.625 805.707 110.09 801.459 110.823 796.534 110.823 787.856 110.823 781.497 108.48 777.452 103.788 773.407 99.101 771.385 91.772 771.385 81.805L771.385 39.947Z" fill="#FFFFFF" fill-rule="nonzero"/></g><g transform="scale(4.16667 4.16667)"><path d="M826.646 6.44C827.043 6.44 827.331 6.344 827.511 6.152 827.69 5.959 827.78 5.703 827.78 5.383 827.78 5.05 827.684 4.801 827.491 4.634 827.299 4.468 826.992 4.384 826.569 4.384L825.378 4.384 825.378 6.44 826.646 6.44ZM824.091 3.308 826.704 3.308C827.126 3.308 827.488 3.369 827.789 3.491 828.09 3.613 828.34 3.769 828.538 3.962 828.737 4.154 828.881 4.368 828.971 4.605 829.06 4.842 829.105 5.076 829.105 5.306 829.105 5.742 828.996 6.136 828.779 6.488 828.561 6.84 828.228 7.106 827.78 7.285L829.432 10.09 827.972 10.09 826.454 7.458 825.378 7.458 825.378 10.09 824.091 10.09 824.091 3.308ZM826.416 12.145C827.171 12.145 827.869 12.008 828.51 11.732 829.15 11.457 829.704 11.076 830.171 10.589 830.639 10.103 831.004 9.53 831.266 8.87 831.529 8.21 831.66 7.503 831.66 6.747 831.66 5.992 831.529 5.284 831.266 4.624 831.004 3.965 830.639 3.392 830.171 2.905 829.704 2.418 829.15 2.034 828.51 1.752 827.869 1.471 827.177 1.33 826.435 1.33 825.679 1.33 824.981 1.471 824.341 1.752 823.7 2.034 823.143 2.418 822.67 2.905 822.196 3.392 821.827 3.965 821.565 4.624 821.302 5.284 821.171 5.992 821.171 6.747 821.171 7.503 821.302 8.21 821.565 8.87 821.827 9.53 822.192 10.103 822.66 10.589 823.127 11.076 823.681 11.457 824.322 11.732 824.962 12.008 825.66 12.145 826.416 12.145ZM826.416 13.432C825.481 13.432 824.607 13.259 823.793 12.914 822.98 12.568 822.276 12.091 821.68 11.482 821.085 10.874 820.614 10.163 820.268 9.35 819.923 8.537 819.75 7.663 819.75 6.728 819.75 5.793 819.923 4.919 820.268 4.106 820.614 3.293 821.085 2.585 821.68 1.983 822.276 1.381 822.98 0.904 823.793 0.552 824.607 0.2 825.487 0.023 826.435 0.023 827.37 0.023 828.241 0.2 829.047 0.552 829.854 0.904 830.555 1.381 831.151 1.983 831.747 2.585 832.217 3.293 832.563 4.106 832.909 4.919 833.082 5.793 833.082 6.728 833.082 7.663 832.909 8.537 832.563 9.35 832.217 10.163 831.747 10.874 831.151 11.482 830.555 12.091 829.851 12.568 829.038 12.914 828.224 13.259 827.35 13.432 826.416 13.432Z" fill="#FFFFFF" fill-rule="nonzero"/></g></g></svg>