<?xml version="1.0" encoding="utf-8"?>
<!-- Generator: Adobe Illustrator 28.0.0, SVG Export Plug-In . SVG Version: 6.00 Build 0)  -->
<svg version="1.1" id="Layer_1" xmlns="http://www.w3.org/2000/svg" xmlns:xlink="http://www.w3.org/1999/xlink" x="0px" y="0px"
	 viewBox="0 0 612 349.7" style="enable-background:new 0 0 612 349.7;" xml:space="preserve">
<style type="text/css">
	.st0{fill:#FF0000;}
</style>
<g>
	<path d="M188.8,270.6l-9.4,2.2l-3-11.6l16.4-4.5H204v54.7h-15.3V270.6z"/>
	<path d="M209.4,284.3v-0.2c0-15.4,10.1-28.2,26-28.2s25.8,12.7,25.8,28.1v0.2c0,15.4-10,28.2-26,28.2
		C219.3,312.4,209.4,299.7,209.4,284.3z M245.6,284.3v-0.2c0-8.7-4.2-15-10.4-15c-6.2,0-10.2,6.1-10.2,14.8v0.2
		c0,8.7,4.2,14.9,10.4,14.9S245.6,292.9,245.6,284.3z"/>
	<path d="M297.4,291l-21.3-34h17.7l11.5,19.8l11.6-19.8h17.3l-21.3,33.7v20.5h-15.5V291z"/>
	<path d="M335.6,257h45v12.7H351v8.3h26.9v11.9H351v8.6H381v12.8h-45.4V257z"/>
	<path d="M405,256.6H420l23.8,54.7h-16.6l-4-9.8h-21.7l-4,9.8h-16.2L405,256.6z M418.6,289.8l-6.2-15.4l-6.3,15.4H418.6z"/>
	<path d="M445.9,257h26.5c8.6,0,14.5,2.2,18.2,5.8c3.3,3.2,5,7.3,5,12.6v0.2c0,8.4-4.6,13.9-11.5,16.7l13.3,18.9h-17.8l-11.3-16.4
		h-6.9v16.4h-15.5V257z M471.7,283.1c5.2,0,8.3-2.5,8.3-6.4v-0.2c0-4.3-3.3-6.5-8.4-6.5h-10.2v13.1H471.7z"/>
	<path d="M495.7,303.2l8.6-10c5.6,4.3,11.7,6.5,18.1,6.5c4.2,0,6.5-1.4,6.5-3.7v-0.2c0-2.3-1.8-3.5-9.5-5.3
		c-11.9-2.6-21.1-5.9-21.1-17v-0.2c0-10.1,8.2-17.4,21.7-17.4c9.5,0,16.9,2.5,23,7.2l-7.8,10.6c-5.1-3.6-10.7-5.3-15.7-5.3
		c-3.8,0-5.6,1.5-5.6,3.5v0.2c0,2.5,1.9,3.6,9.8,5.3c12.8,2.7,20.8,6.7,20.8,16.9v0.2c0,11.1-9,17.7-22.6,17.7
		C512,312.2,502.7,309.2,495.7,303.2z"/>
</g>
<path class="st0" d="M539.7,39.4H65.8c-11.8,0-21.4,9.6-21.4,21.5v162.6c0,11.9,9.6,21.4,21.4,21.4h12.8V71.4h41.8l34.1,53.7
	l34.1-53.7h41.8V210h-39.4v-79.6l-36.5,54.2h-0.8l-36.3-54v195.3l54.1-81.1h368.2c11.8,0,21.5-9.6,21.5-21.4V60.8
	C561.2,49,551.6,39.4,539.7,39.4z M399.1,210h-39.4v-79.6l-36.5,54.2h-0.8l-36.3-54V210h-38.8V71.4h41.9l34.1,53.7l34.1-53.7h41.9
	V210z M529.7,167.3c0,28.3-23.1,45.1-57.8,45.1c-25.3,0-49.2-7.7-67-23l22-25.5c14.3,10.9,29.8,16.6,46.3,16.6
	c10.8,0,16.5-3.6,16.5-9.5v-0.4c0-5.9-4.7-8.9-24.3-13.5c-30.4-6.7-53.9-15.1-53.9-43.4v-0.4c0-25.7,21-44.3,55.3-44.3
	c24.3,0,43.3,6.3,58.8,18.4l-19.8,27.1c-13.1-9.1-27.4-13.7-40-13.7c-9.6,0-14.3,3.8-14.3,8.9v0.4c0,6.3,4.9,9.1,24.9,13.5
	c32.7,6.9,53.1,17.2,53.1,43.2L529.7,167.3L529.7,167.3z"/>
</svg>
