<?xml version="1.0" encoding="utf-8"?>
<!-- Generator: Adobe Illustrator 25.2.3, SVG Export Plug-In . SVG Version: 6.00 Build 0)  -->
<svg version="1.1" id="Layer_1" xmlns="http://www.w3.org/2000/svg" xmlns:xlink="http://www.w3.org/1999/xlink" x="0px" y="0px"
	 viewBox="0 0 612 349.69" style="enable-background:new 0 0 612 349.69;" xml:space="preserve">
<style type="text/css">
	.st0{fill:#FF0000;}
	.st1{fill:#FFFFFF;}
</style>
<rect x="-5.75" y="-4.62" class="st0" width="633.06" height="366.71"/>
<path class="st1" d="M543.19,40.35H69.27c-11.85,0-21.45,9.6-21.45,21.45v162.57c0,11.85,9.6,21.45,21.45,21.45h12.84V72.4h41.85
	l34.09,53.66l34.09-53.66h41.85V211h-39.4v-79.6l-36.54,54.25h-0.82L120.9,131.6v195.27l54.1-81.05h368.2
	c11.85,0,21.45-9.6,21.45-21.45V61.81C564.64,49.96,555.04,40.35,543.19,40.35z M402.59,211h-39.4v-79.6l-36.54,54.25h-0.82
	L289.5,131.6V211h-38.79V72.4h41.85l34.09,53.66l34.09-53.66h41.85V211z M533.23,168.23c0,28.31-23.07,45.14-57.77,45.14
	c-25.31,0-49.2-7.72-66.96-22.97l22.05-25.54c14.29,10.89,29.8,16.63,46.34,16.63c10.82,0,16.53-3.56,16.53-9.5v-0.4
	c0-5.94-4.69-8.91-24.29-13.46c-30.42-6.73-53.89-15.05-53.89-43.36v-0.4c0-25.74,21.03-44.35,55.32-44.35
	c24.29,0,43.28,6.34,58.79,18.41l-19.8,27.13c-13.06-9.11-27.35-13.66-40.01-13.66c-9.59,0-14.29,3.76-14.29,8.91v0.4
	c0,6.34,4.9,9.11,24.9,13.46c32.66,6.93,53.07,17.23,53.07,43.16v0.4H533.23z"/>
</svg>
