<?xml version="1.0" encoding="utf-8"?>
<!-- Generator: Adobe Illustrator 25.2.3, SVG Export Plug-In . SVG Version: 6.00 Build 0)  -->
<svg version="1.1" id="Layer_1" xmlns="http://www.w3.org/2000/svg" xmlns:xlink="http://www.w3.org/1999/xlink" x="0px" y="0px"
	 viewBox="0 0 1024 1024" style="enable-background:new 0 0 1024 1024;" xml:space="preserve">
<style type="text/css">
	.st0{fill:#FF0000;}
	.st1{fill:#FFFFFF;}
</style>
<rect x="-9.27" y="-10.4" class="st0" width="1041.52" height="1043.51"/>
<path class="st1" d="M857.24,340.59H175.9c-17.03,0-30.84,13.81-30.84,30.84v233.72c0,17.03,13.81,30.84,30.84,30.84h18.46V386.66
	h60.16l49.01,77.14l49.01-77.14h60.16v199.26h-56.64V471.49l-52.53,78h-1.18l-52.24-77.71v280.74L327.88,636h529.35
	c17.03,0,30.84-13.81,30.84-30.84V371.43C888.08,354.4,874.27,340.59,857.24,340.59z M655.11,585.92h-56.64V471.49l-52.53,78h-1.18
	l-52.24-77.71v114.15h-55.76V386.66h60.16l49.01,77.14l49.01-77.14h60.16v199.26H655.11z M842.92,524.43
	c0,40.71-33.16,64.9-83.05,64.9c-36.39,0-70.73-11.1-96.26-33.02l31.7-36.72c20.54,15.66,42.85,23.91,66.62,23.91
	c15.55,0,23.77-5.12,23.77-13.66v-0.57c0-8.54-6.75-12.81-34.92-19.36c-43.73-9.68-77.48-21.63-77.48-62.34V447
	c0-37,30.23-63.76,79.53-63.76c34.92,0,62.22,9.11,84.52,26.47l-28.47,39c-18.78-13.09-39.33-19.64-57.52-19.64
	c-13.79,0-20.54,5.41-20.54,12.81v0.57c0,9.11,7.04,13.09,35.8,19.36c46.96,9.96,76.3,24.76,76.3,62.05L842.92,524.43L842.92,524.43
	z"/>
</svg>
