<?xml version="1.0" encoding="utf-8"?>
<!-- Generator: Adobe Illustrator 25.2.3, SVG Export Plug-In . SVG Version: 6.00 Build 0)  -->
<svg version="1.1" id="Layer_1" xmlns="http://www.w3.org/2000/svg" xmlns:xlink="http://www.w3.org/1999/xlink" x="0px" y="0px"
	 viewBox="0 0 1000 1000" style="enable-background:new 0 0 1000 1000;" xml:space="preserve">
<style type="text/css">
	.st0{fill:#FFFFFF;}
	.st1{stroke:#FFFFFF;stroke-width:50.2916;stroke-miterlimit:10;}
	.st2{fill:#FF0000;}
</style>
<rect x="-26.59" y="-28.39" class="st0" width="1056.15" height="1058.81"/>
<path d="M833.14,549.56H264.8c-28.61,0-51.81-23.2-51.81-51.81V266.29c0-28.61,23.2-51.81,51.81-51.81h568.34
	c28.61,0,51.81,23.2,51.81,51.81v231.46C884.95,526.36,861.75,549.56,833.14,549.56z"/>
<path class="st1" d="M719.36,711.69H151.02c-28.61,0-51.81-23.2-51.81-51.81V428.42c0-28.61,23.2-51.81,51.81-51.81h568.34
	c28.61,0,51.81,23.2,51.81,51.81v231.46C771.17,688.49,747.97,711.69,719.36,711.69z"/>
<g>
	<path class="st2" d="M719.36,711.69H151.02c-28.61,0-51.81-23.2-51.81-51.81V428.42c0-28.61,23.2-51.81,51.81-51.81h568.34
		c28.61,0,51.81,23.2,51.81,51.81v231.46C771.17,688.49,747.97,711.69,719.36,711.69z"/>
	<path class="st2" d="M220.83,641.82v203.99l112.82-170.05C333.65,675.76,216.43,641.82,220.83,641.82z"/>
</g>
<circle class="st0" cx="233.82" cy="538.81" r="38.46"/>
<circle class="st0" cx="427.58" cy="538.81" r="38.46"/>
<circle class="st0" cx="621.34" cy="538.81" r="38.46"/>
</svg>
