<?xml version="1.0" encoding="utf-8"?>
<!-- Generator: Adobe Illustrator 25.2.3, SVG Export Plug-In . SVG Version: 6.00 Build 0)  -->
<svg version="1.2" xmlns:xlink="http://www.w3.org/1999/xlink" viewBox="0 0 1024 1024" baseProfile="tiny-ps" xmlns="http://www.w3.org/2000/svg">
  <title>MMSMOA</title>

<rect x="-9.27" y="-10.4" width="1041.52" height="1043.51" fill="#FF0000" />
<path d="M930.95,303.18H99.15c-20.79,0-37.65,16.86-37.65,37.65v285.34c0,20.79,16.86,37.65,37.65,37.65h22.54v-304.4  h73.45l59.83,94.18l59.83-94.18h73.45v243.26H319.1v-139.7l-64.13,95.22h-1.43l-63.77-94.87v342.73l94.95-142.25h646.24  c20.79,0,37.65-16.86,37.65-37.65V340.83C968.6,320.04,951.74,303.18,930.95,303.18z M684.18,602.69h-69.15v-139.7L550.9,558.2  h-1.43l-63.77-94.87v139.35h-68.07V359.42h73.45l59.83,94.18l59.83-94.18h73.45v243.27H684.18z M913.47,527.62  c0,49.69-40.48,79.23-101.39,79.23c-44.43,0-86.35-13.55-117.52-40.31l38.7-44.83c25.08,19.11,52.31,29.19,81.33,29.19  c18.99,0,29.02-6.25,29.02-16.68v-0.69c0-10.43-8.24-15.64-42.63-23.63c-53.38-11.82-94.59-26.41-94.59-76.11v-0.7  c0-45.18,36.9-77.84,97.1-77.84c42.64,0,75.95,11.12,103.19,32.32l-34.75,47.61c-22.93-15.99-48.01-23.98-70.22-23.98  c-16.84,0-25.08,6.6-25.08,15.64v0.7c0,11.12,8.6,15.99,43.71,23.63c57.33,12.16,93.15,30.23,93.15,75.76v0.69H913.47z" fill="#FFFFFF" />
</svg>